#!OML:ASF H:\Dans Jumps\Project 1\Capture day 1\Session 1\subject.ASF
:FULLY-SPECIFIED
:DEGREES
306
root 0.506663 17.6414 -2.62304 7.94628 -0.503948 -1.34622
lowerback 1.08765 0.349748 -0.496916
upperback 4.1816 0.43422 1.24896
thorax 3.67647 0.175976 1.57336
lowerneck -11.5829 -0.53242 -2.11767
upperneck 33.9629 -0.807385 1.70587
head 13.3584 -0.397222 0.929489
rclavicle 1.93815e-015 3.18055e-015
rhumerus -18.8755 -16.3781 -82.6
rradius 24.0207
rwrist 32.5642
rhand -20.5105 -25.6956
rfingers 7.12502
rthumb 5.847 -55.595
lclavicle 1.93815e-015 3.18055e-015
lhumerus -24.2251 -3.23648 90.7555
lradius 18.8617
lwrist 10.2105
lhand -27.3814 -4.40616
lfingers 7.12502
lthumb -0.788427 25.5721
rfemur -19.6644 -0.508766 18.4115
rtibia 27.076
rfoot -13.6794 0.695222
rtoes 13.413
lfemur -18.6119 6.76681 -18.1496
ltibia 25.0467
lfoot -10.586 6.09575
ltoes 0.858528
307
root 0.507105 17.6467 -2.61016 7.93995 -0.493873 -1.34094
lowerback 1.01649 0.323675 -0.501604
upperback 4.19953 0.399036 1.25701
thorax 3.73638 0.157671 1.58425
lowerneck -11.5765 -0.507227 -2.11629
upperneck 33.9644 -0.770375 1.70229
head 13.3567 -0.38163 0.933158
rclavicle -3.77691e-015 -1.74931e-014
rhumerus -19.0396 -16.2661 -82.6366
rradius 24.0156
rwrist 32.5577
rhand -20.4378 -25.6871
rfingers 7.12502
rthumb 5.91714 -55.5844
lclavicle -3.77691e-015 -1.74931e-014
lhumerus -24.2342 -3.27436 90.7442
lradius 18.8523
lwrist 10.1217
lhand -27.3133 -4.28981
lfingers 7.12502
lthumb -0.722685 25.6887
rfemur -19.5232 -0.538147 18.4089
rtibia 26.9172
rfoot -13.6484 0.690234
rtoes 13.4196
lfemur -18.4449 6.75911 -18.1484
ltibia 24.8412
lfoot -10.5549 6.07835
ltoes 0.908379
308
root 0.507474 17.6518 -2.59762 7.93378 -0.485414 -1.33289
lowerback 0.944691 0.297151 -0.509989
upperback 4.2203 0.36322 1.26667
thorax 3.79962 0.138854 1.5988
lowerneck -11.5818 -0.480129 -2.11397
upperneck 33.9709 -0.728638 1.69287
head 13.3595 -0.364589 0.935095
rclavicle 3.97569e-015 2.18663e-015
rhumerus -19.2023 -16.1625 -82.6657
rradius 23.9977
rwrist 32.5633
rhand -20.3691 -25.6697
rfingers 7.12502
rthumb 5.98352 -55.5652
lclavicle 3.97569e-015 2.18663e-015
lhumerus -24.2458 -3.31638 90.7341
lradius 18.8486
lwrist 10.0475
lhand -27.1977 -4.11881
lfingers 7.12502
lthumb -0.611039 25.8601
rfemur -19.3852 -0.563466 18.4033
rtibia 26.7615
rfoot -13.6165 0.681001
rtoes 13.4211
lfemur -18.2802 6.75211 -18.1503
ltibia 24.6371
lfoot -10.5232 6.06012
ltoes 0.965267
309
root 0.507766 17.6569 -2.58559 7.92754 -0.478636 -1.32416
lowerback 0.872295 0.27089 -0.517702
upperback 4.24515 0.327708 1.27642
thorax 3.86751 0.120153 1.61303
lowerneck -11.5959 -0.452565 -2.11163
upperneck 33.9774 -0.685355 1.68149
head 13.3643 -0.347096 0.936495
rclavicle 1.49089e-016 -9.74045e-015
rhumerus -19.3631 -16.0679 -82.6895
rradius 23.9696
rwrist 32.5869
rhand -20.3008 -25.6471
rfingers 7.12502
rthumb 6.04945 -55.5408
lclavicle 1.49089e-016 -9.74045e-015
lhumerus -24.2559 -3.36617 90.7235
lradius 18.8461
lwrist 9.97524
lhand -27.0632 -3.94048
lfingers 7.12502
lthumb -0.481085 26.0387
rfemur -19.251 -0.580396 18.3967
rtibia 26.6091
rfoot -13.5844 0.665592
rtoes 13.4302
lfemur -18.1189 6.74292 -18.1526
ltibia 24.435
lfoot -10.4894 6.04499
ltoes 1.03024
